<svg width="222" height="222" viewBox="0 0 222 222" fill="none" xmlns="http://www.w3.org/2000/svg">
<g filter="url(#filter0_ii_3_88)">
<path d="M0 42C0 18.804 18.804 0 42 0H170C198.719 0 222 23.2812 222 52V170C222 198.719 198.719 222 170 222H52C23.2812 222 0 198.719 0 170V42Z" fill="#00A6F4"/>
</g>
<g filter="url(#filter1_d_3_88)">
<path d="M101.562 186.06C99.0998 186.183 96.6235 186.216 94.1677 186.447C83.7321 187.419 73.2964 188.458 62.8607 189.449C61.8891 189.544 60.904 189.517 59.9257 189.47C56.5713 189.313 55.3733 187.649 56.2386 184.403C56.385 183.853 56.5181 183.29 56.7111 182.508C58.3484 182.318 60.0255 182.176 61.6894 181.911C63.2734 181.66 64.8174 181.157 66.4081 180.974C67.8723 180.804 69.3697 180.987 70.8406 180.892C72.0053 180.817 73.1767 180.654 74.3081 180.376C76.338 179.887 78.3412 179.289 80.3645 178.746C80.664 178.665 81.1831 178.529 81.2696 178.658C82.6473 180.634 83.3129 178.902 84.2047 178.454C94.9465 177.741 105.502 175.432 116.177 174.033C107.758 174.413 99.3259 174.597 90.92 175.228C78.5209 176.165 66.1419 177.429 53.7494 178.549C52.618 178.651 51.4866 178.753 50.3485 178.787C48.3319 178.841 46.9609 176.845 47.0008 174.149C47.0341 171.704 48.5316 172.077 50.1954 172.043C54.7477 171.941 59.2934 171.622 63.8391 171.317C68.0986 171.031 72.358 170.665 76.6175 170.325C83.4726 169.782 90.3144 169.109 97.1827 168.722C101.202 168.498 105.256 168.709 109.289 168.749C112.391 168.783 115.459 167.921 118.62 168.953C119.951 169.388 121.668 168.41 123.219 168.376C129.721 168.247 136.223 168.186 142.726 168.186C146.413 168.186 150.093 168.437 153.78 168.41C159.158 168.369 164.536 168.274 169.907 168.009C172.063 167.901 173.66 168.749 173.967 170.678C174.186 172.057 173.274 173.639 172.762 175.099C172.682 175.33 172.056 175.459 171.684 175.466C163.085 175.554 154.459 175.228 145.894 175.799C136.097 176.444 126.354 177.877 116.59 178.984C115.718 179.086 114.866 179.344 114.008 179.527C114.014 179.744 114.028 179.962 114.034 180.186C117.801 180.186 121.568 180.098 125.335 180.213C128.889 180.322 132.443 180.729 135.997 180.858C138.626 180.953 141.268 180.919 143.891 180.729C146.32 180.559 147.877 181.918 148.07 184.729C148.21 186.753 147.092 187.812 144.796 188.003C135.238 188.818 125.681 189.653 116.131 190.515C115.279 190.59 114.447 190.882 113.588 191.303C120.856 192.397 128.284 192.634 135.019 195.894L135.145 196.892C134.14 197.279 133.122 198.026 132.137 197.999C125.661 197.789 119.199 197.395 112.723 197.082C105.395 196.723 98.0745 196.403 90.747 196.023C89.7088 195.969 88.6905 195.67 87.6522 195.514C84.4443 195.038 84.0117 193.096 85.0166 189.422C85.1364 188.974 85.7088 188.369 86.1148 188.329C88.9367 188.05 91.8584 187.385 94.5738 187.867C97.2692 188.342 99.3589 187.554 101.629 186.76C101.602 186.522 101.582 186.291 101.556 186.054L101.562 186.06Z" fill="white" fill-opacity="0.65"/>
<path d="M169.919 168.259C170.965 168.206 171.848 168.388 172.498 168.792C173.14 169.191 173.577 169.821 173.72 170.718C173.819 171.343 173.665 172.035 173.403 172.775C173.274 173.144 173.12 173.515 172.966 173.892C172.814 174.262 172.66 174.636 172.53 175.005C172.526 175.009 172.514 175.021 172.485 175.038C172.434 175.068 172.358 175.099 172.263 175.127C172.12 175.169 171.956 175.196 171.813 175.209L171.68 175.216C163.098 175.304 154.45 174.978 145.877 175.549C136.073 176.195 126.314 177.63 116.562 178.735H116.561C115.675 178.839 114.785 179.105 113.955 179.282L113.752 179.326L113.758 179.534C113.761 179.645 113.767 179.756 113.771 179.865C113.776 179.975 113.781 180.084 113.784 180.193L113.791 180.436H114.034C117.809 180.436 121.565 180.348 125.327 180.463C127.098 180.517 128.87 180.646 130.647 180.777C132.423 180.909 134.206 181.044 135.988 181.108C138.625 181.204 141.277 181.169 143.909 180.979L143.908 180.978C145.072 180.896 145.994 181.183 146.648 181.794C147.305 182.407 147.727 183.381 147.82 184.746C147.887 185.708 147.654 186.4 147.171 186.876C146.681 187.359 145.894 187.661 144.775 187.754H144.774C137.606 188.365 130.438 188.987 123.272 189.624L116.108 190.267C115.215 190.345 114.352 190.651 113.479 191.079L112.76 191.432L113.552 191.551C120.814 192.643 128.13 192.88 134.787 196.062L134.873 196.735C134.419 196.928 133.948 197.181 133.529 197.374C133.032 197.603 132.576 197.76 132.145 197.748C127.29 197.59 122.445 197.331 117.592 197.078L112.735 196.833C105.405 196.473 98.0873 196.154 90.7598 195.773C90.2592 195.747 89.7594 195.662 89.248 195.562C88.7417 195.462 88.2159 195.346 87.6895 195.267H87.6885C86.1307 195.036 85.3264 194.464 84.9883 193.578C84.636 192.656 84.7562 191.322 85.2578 189.488V189.486C85.3026 189.319 85.4453 189.092 85.6367 188.897C85.7299 188.803 85.8277 188.723 85.9199 188.666C85.9674 188.637 86.01 188.616 86.0469 188.602L86.1396 188.577C86.8496 188.507 87.5652 188.413 88.2773 188.319C88.9912 188.225 89.7026 188.132 90.4092 188.062C91.646 187.939 92.8592 187.89 94.0303 188.037L94.5303 188.113C97.2996 188.602 99.4503 187.787 101.711 186.996L101.899 186.93L101.877 186.732C101.864 186.615 101.852 186.499 101.841 186.382C101.838 186.353 101.834 186.325 101.831 186.296L102.124 186.282L101.742 185.887L101.735 185.88L101.226 185.352L101.277 185.821C99.2218 185.918 97.1383 185.964 95.0693 186.12L94.1445 186.198C83.7092 187.169 73.2706 188.209 62.8369 189.2H62.8359C61.8837 189.293 60.9139 189.267 59.9375 189.22L59.6357 189.201C58.161 189.086 57.2125 188.651 56.7021 187.948C56.1574 187.198 56.0552 186.063 56.4805 184.468C56.6168 183.956 56.7417 183.43 56.9121 182.737C58.4859 182.558 60.1168 182.415 61.7285 182.158C62.5311 182.031 63.3238 181.839 64.1025 181.66C64.885 181.48 65.6566 181.312 66.4365 181.222C67.1504 181.139 67.8763 181.143 68.6172 181.155C69.3533 181.168 70.1083 181.19 70.8564 181.142C72.0332 181.066 73.2193 180.901 74.3672 180.618C75.3836 180.373 76.3958 180.101 77.4053 179.822L80.4297 178.987C80.5806 178.946 80.773 178.896 80.9355 178.87C81.009 178.859 81.0659 178.855 81.1045 178.855C81.4452 179.332 81.7665 179.625 82.0908 179.755C82.4457 179.897 82.7646 179.833 83.0381 179.686C83.2971 179.546 83.5311 179.324 83.7334 179.136C83.9348 178.949 84.1084 178.794 84.2812 178.698C95.0094 177.98 105.586 175.673 116.21 174.281L116.166 173.783C107.755 174.163 99.312 174.348 90.9014 174.979C78.5 175.917 66.1151 177.18 53.7266 178.3C52.5941 178.402 51.47 178.502 50.3408 178.536C49.4278 178.56 48.6558 178.125 48.1074 177.354C47.5552 176.578 47.2316 175.46 47.251 174.152C47.259 173.563 47.3555 173.174 47.499 172.914C47.6379 172.663 47.8299 172.517 48.0732 172.427C48.326 172.333 48.6358 172.301 49.0039 172.293H50.2012C54.76 172.191 59.3117 171.872 63.8555 171.566C68.1171 171.281 72.3803 170.914 76.6377 170.574C83.4989 170.03 90.3319 169.359 97.1963 168.972C101.205 168.748 105.239 168.958 109.286 168.999C110.844 169.016 112.425 168.807 113.945 168.727C115.483 168.645 117.005 168.688 118.543 169.19C119.284 169.432 120.111 169.276 120.896 169.083C121.607 168.908 122.29 168.701 122.945 168.642L123.224 168.626C129.724 168.497 136.225 168.436 142.726 168.436C144.564 168.436 146.402 168.498 148.245 168.558C150.087 168.617 151.933 168.674 153.782 168.66C159.161 168.619 164.543 168.524 169.919 168.259Z" stroke="white" stroke-opacity="0.5" stroke-width="0.5"/>
<mask id="path-4-inside-1_3_88" fill="white">
<path d="M160.91 42.1351C160.456 43.9369 160.115 45.795 159.888 47.7095C159.774 49.6239 159.717 51.5946 159.717 53.6216C159.717 58.0135 159.774 62.518 159.888 67.1351C160.002 71.6396 160.058 75.8626 160.058 79.8041C160.058 87.7995 159.433 95.9077 158.184 104.128C157.048 112.236 154.833 119.669 151.538 126.426C148.244 133.182 143.586 138.926 137.565 143.655C131.544 148.273 123.762 151.088 114.22 152.101C124.558 151.088 132.851 148.104 139.099 143.149C145.347 138.081 150.175 131.887 153.583 124.568C156.991 117.135 159.263 109.027 160.399 100.243C161.535 91.4595 162.103 82.8446 162.103 74.3986C162.103 70.9077 162.046 67.4167 161.933 63.9257C161.819 60.4347 161.762 56.9437 161.762 53.4527V49.5676C161.762 48.2162 161.819 46.9212 161.933 45.6824C163.41 49.1734 164.262 53.4527 164.489 58.5203C164.83 63.5878 165 68.3739 165 72.8784C165 77.6081 164.943 81.8311 164.83 85.5473C164.716 89.1509 164.318 93.3176 163.637 98.0473L161.933 100.581C161.024 108.577 159.32 115.896 156.821 122.541C154.321 129.185 150.857 134.928 146.426 139.77C141.996 144.5 136.543 148.216 130.067 150.919C123.592 153.509 116.037 154.804 107.404 154.804C100.247 154.804 93.2033 153.791 86.2735 151.764C79.4574 149.849 73.3797 146.358 68.0404 141.291L67.6996 142.473C73.0389 147.653 79.0598 151.257 85.7623 153.284C92.5785 155.311 99.6218 156.324 106.892 156.324C115.072 156.324 122.286 155.086 128.534 152.608C134.782 150.131 140.178 146.696 144.722 142.304C149.38 137.8 153.185 132.45 156.139 126.257C158.979 120.288 161.194 113.644 162.785 106.324C161.194 113.869 159.036 120.682 156.309 126.764C153.583 133.07 150.004 138.475 145.574 142.98C141.144 147.484 135.804 150.919 129.556 153.284C123.308 155.761 115.867 157 107.233 157C97.3498 157 88.8296 155.48 81.6726 152.439C74.6293 149.399 68.8356 145.119 64.2915 139.601C59.7474 134.083 56.3961 127.495 54.2377 119.838C52.0792 112.18 51 103.734 51 94.5C51 89.545 51.3408 84.7027 52.0224 79.973C52.8176 75.1306 53.7265 70.3446 54.7489 65.6149C55.7713 60.8851 56.7937 56.1554 57.8161 51.4257C58.8386 46.5833 59.6338 41.741 60.2018 36.8987H64.2915C64.9731 37.1239 65.4275 37.6869 65.6547 38.5878C65.8819 39.4887 65.9955 40.2207 65.9955 40.7838C65.9955 42.3604 65.8819 43.8806 65.6547 45.3446C65.4275 46.8086 65.2003 48.3288 64.9731 49.9054H66.5067C66.6203 49.2297 66.9611 47.9347 67.5291 46.0203C68.2108 43.9932 68.9492 41.9662 69.7444 39.9392C70.6532 37.9122 71.6188 36.1104 72.6413 34.5338C73.6637 32.8446 74.6861 32 75.7085 32C76.3901 32 76.9013 32.3941 77.2422 33.1824C77.583 33.9707 77.8102 34.8716 77.9238 35.8851C78.151 36.8986 78.2646 37.9685 78.2646 39.0946C78.3782 40.1081 78.435 40.8964 78.435 41.4595C78.435 46.0766 78.0942 50.6374 77.4126 55.1419C76.8445 59.5338 76.1629 63.982 75.3677 68.4865C74.5725 72.991 73.8341 77.4955 73.1525 82C72.5845 86.5045 72.3004 91.009 72.3004 95.5135C72.3004 101.482 72.9821 106.944 74.3453 111.899C75.7085 116.854 77.867 121.133 80.8206 124.736C83.8879 128.227 87.6936 130.986 92.2377 133.014C96.8954 134.928 102.462 135.885 108.937 135.885C115.867 135.885 121.661 134.196 126.318 130.818C131.09 127.439 134.895 123.16 137.735 117.98C140.689 112.687 142.734 106.887 143.87 100.581C145.12 94.2748 145.744 88.25 145.744 82.5068C145.744 77.777 145.517 73.1036 145.063 68.4865C144.608 63.8694 144.381 59.1959 144.381 54.4662V53.9595C144.381 52.946 144.495 51.5946 144.722 49.9054C145.063 48.2162 145.915 47.3716 147.278 47.3716C147.505 47.3716 147.676 48.9482 147.789 52.1014C148.016 55.1419 148.187 58.6329 148.3 62.5743C148.414 66.5158 148.471 70.2883 148.471 73.8919C148.584 77.4955 148.641 79.8041 148.641 80.8176V87.5743C148.641 89.714 148.528 91.9099 148.3 94.1622C148.868 91.2342 149.152 88.3626 149.152 85.5473C149.266 82.732 149.323 79.8604 149.323 76.9324C149.323 72.0901 149.209 67.2477 148.982 62.4054L148.3 47.8784H151.538C151.311 46.7523 151.197 45.0631 151.197 42.8108C151.197 40.7838 151.425 38.8131 151.879 36.8987C152.333 34.8716 153.299 33.8581 154.776 33.8581C155.457 33.8581 156.139 34.196 156.821 34.8716C157.502 35.5473 158.07 36.3356 158.525 37.2365C159.093 38.1374 159.547 39.0946 159.888 40.1081C160.342 41.009 160.683 41.6847 160.91 42.1351ZM135.009 129.973C133.419 130.874 131.317 132.169 128.704 133.858C126.091 135.547 122.683 137.124 118.48 138.588C120.07 138.25 121.661 137.8 123.251 137.236C124.955 136.561 126.546 135.829 128.022 135.041C129.499 134.14 130.862 133.239 132.112 132.338C133.362 131.437 134.327 130.649 135.009 129.973Z"/>
</mask>
<path d="M160.91 42.1351C160.456 43.9369 160.115 45.795 159.888 47.7095C159.774 49.6239 159.717 51.5946 159.717 53.6216C159.717 58.0135 159.774 62.518 159.888 67.1351C160.002 71.6396 160.058 75.8626 160.058 79.8041C160.058 87.7995 159.433 95.9077 158.184 104.128C157.048 112.236 154.833 119.669 151.538 126.426C148.244 133.182 143.586 138.926 137.565 143.655C131.544 148.273 123.762 151.088 114.22 152.101C124.558 151.088 132.851 148.104 139.099 143.149C145.347 138.081 150.175 131.887 153.583 124.568C156.991 117.135 159.263 109.027 160.399 100.243C161.535 91.4595 162.103 82.8446 162.103 74.3986C162.103 70.9077 162.046 67.4167 161.933 63.9257C161.819 60.4347 161.762 56.9437 161.762 53.4527V49.5676C161.762 48.2162 161.819 46.9212 161.933 45.6824C163.41 49.1734 164.262 53.4527 164.489 58.5203C164.83 63.5878 165 68.3739 165 72.8784C165 77.6081 164.943 81.8311 164.83 85.5473C164.716 89.1509 164.318 93.3176 163.637 98.0473L161.933 100.581C161.024 108.577 159.32 115.896 156.821 122.541C154.321 129.185 150.857 134.928 146.426 139.77C141.996 144.5 136.543 148.216 130.067 150.919C123.592 153.509 116.037 154.804 107.404 154.804C100.247 154.804 93.2033 153.791 86.2735 151.764C79.4574 149.849 73.3797 146.358 68.0404 141.291L67.6996 142.473C73.0389 147.653 79.0598 151.257 85.7623 153.284C92.5785 155.311 99.6218 156.324 106.892 156.324C115.072 156.324 122.286 155.086 128.534 152.608C134.782 150.131 140.178 146.696 144.722 142.304C149.38 137.8 153.185 132.45 156.139 126.257C158.979 120.288 161.194 113.644 162.785 106.324C161.194 113.869 159.036 120.682 156.309 126.764C153.583 133.07 150.004 138.475 145.574 142.98C141.144 147.484 135.804 150.919 129.556 153.284C123.308 155.761 115.867 157 107.233 157C97.3498 157 88.8296 155.48 81.6726 152.439C74.6293 149.399 68.8356 145.119 64.2915 139.601C59.7474 134.083 56.3961 127.495 54.2377 119.838C52.0792 112.18 51 103.734 51 94.5C51 89.545 51.3408 84.7027 52.0224 79.973C52.8176 75.1306 53.7265 70.3446 54.7489 65.6149C55.7713 60.8851 56.7937 56.1554 57.8161 51.4257C58.8386 46.5833 59.6338 41.741 60.2018 36.8987H64.2915C64.9731 37.1239 65.4275 37.6869 65.6547 38.5878C65.8819 39.4887 65.9955 40.2207 65.9955 40.7838C65.9955 42.3604 65.8819 43.8806 65.6547 45.3446C65.4275 46.8086 65.2003 48.3288 64.9731 49.9054H66.5067C66.6203 49.2297 66.9611 47.9347 67.5291 46.0203C68.2108 43.9932 68.9492 41.9662 69.7444 39.9392C70.6532 37.9122 71.6188 36.1104 72.6413 34.5338C73.6637 32.8446 74.6861 32 75.7085 32C76.3901 32 76.9013 32.3941 77.2422 33.1824C77.583 33.9707 77.8102 34.8716 77.9238 35.8851C78.151 36.8986 78.2646 37.9685 78.2646 39.0946C78.3782 40.1081 78.435 40.8964 78.435 41.4595C78.435 46.0766 78.0942 50.6374 77.4126 55.1419C76.8445 59.5338 76.1629 63.982 75.3677 68.4865C74.5725 72.991 73.8341 77.4955 73.1525 82C72.5845 86.5045 72.3004 91.009 72.3004 95.5135C72.3004 101.482 72.9821 106.944 74.3453 111.899C75.7085 116.854 77.867 121.133 80.8206 124.736C83.8879 128.227 87.6936 130.986 92.2377 133.014C96.8954 134.928 102.462 135.885 108.937 135.885C115.867 135.885 121.661 134.196 126.318 130.818C131.09 127.439 134.895 123.16 137.735 117.98C140.689 112.687 142.734 106.887 143.87 100.581C145.12 94.2748 145.744 88.25 145.744 82.5068C145.744 77.777 145.517 73.1036 145.063 68.4865C144.608 63.8694 144.381 59.1959 144.381 54.4662V53.9595C144.381 52.946 144.495 51.5946 144.722 49.9054C145.063 48.2162 145.915 47.3716 147.278 47.3716C147.505 47.3716 147.676 48.9482 147.789 52.1014C148.016 55.1419 148.187 58.6329 148.3 62.5743C148.414 66.5158 148.471 70.2883 148.471 73.8919C148.584 77.4955 148.641 79.8041 148.641 80.8176V87.5743C148.641 89.714 148.528 91.9099 148.3 94.1622C148.868 91.2342 149.152 88.3626 149.152 85.5473C149.266 82.732 149.323 79.8604 149.323 76.9324C149.323 72.0901 149.209 67.2477 148.982 62.4054L148.3 47.8784H151.538C151.311 46.7523 151.197 45.0631 151.197 42.8108C151.197 40.7838 151.425 38.8131 151.879 36.8987C152.333 34.8716 153.299 33.8581 154.776 33.8581C155.457 33.8581 156.139 34.196 156.821 34.8716C157.502 35.5473 158.07 36.3356 158.525 37.2365C159.093 38.1374 159.547 39.0946 159.888 40.1081C160.342 41.009 160.683 41.6847 160.91 42.1351ZM135.009 129.973C133.419 130.874 131.317 132.169 128.704 133.858C126.091 135.547 122.683 137.124 118.48 138.588C120.07 138.25 121.661 137.8 123.251 137.236C124.955 136.561 126.546 135.829 128.022 135.041C129.499 134.14 130.862 133.239 132.112 132.338C133.362 131.437 134.327 130.649 135.009 129.973Z" fill="white" fill-opacity="0.65" stroke="white" stroke-opacity="0.5" mask="url(#path-4-inside-1_3_88)"/>
</g>
<defs>
<filter id="filter0_ii_3_88" x="-5" y="-5" width="232" height="232" filterUnits="userSpaceOnUse" color-interpolation-filters="sRGB">
<feFlood flood-opacity="0" result="BackgroundImageFix"/>
<feBlend mode="normal" in="SourceGraphic" in2="BackgroundImageFix" result="shape"/>
<feColorMatrix in="SourceAlpha" type="matrix" values="0 0 0 0 0 0 0 0 0 0 0 0 0 0 0 0 0 0 127 0" result="hardAlpha"/>
<feOffset dx="-5" dy="-5"/>
<feGaussianBlur stdDeviation="4"/>
<feComposite in2="hardAlpha" operator="arithmetic" k2="-1" k3="1"/>
<feColorMatrix type="matrix" values="0 0 0 0 0 0 0 0 0 0 0 0 0 0 0 0 0 0 0.25 0"/>
<feBlend mode="normal" in2="shape" result="effect1_innerShadow_3_88"/>
<feColorMatrix in="SourceAlpha" type="matrix" values="0 0 0 0 0 0 0 0 0 0 0 0 0 0 0 0 0 0 127 0" result="hardAlpha"/>
<feOffset dx="5" dy="5"/>
<feGaussianBlur stdDeviation="4"/>
<feComposite in2="hardAlpha" operator="arithmetic" k2="-1" k3="1"/>
<feColorMatrix type="matrix" values="0 0 0 0 1 0 0 0 0 1 0 0 0 0 1 0 0 0 0.25 0"/>
<feBlend mode="normal" in2="effect1_innerShadow_3_88" result="effect2_innerShadow_3_88"/>
</filter>
<filter id="filter1_d_3_88" x="43" y="29" width="135" height="174" filterUnits="userSpaceOnUse" color-interpolation-filters="sRGB">
<feFlood flood-opacity="0" result="BackgroundImageFix"/>
<feColorMatrix in="SourceAlpha" type="matrix" values="0 0 0 0 0 0 0 0 0 0 0 0 0 0 0 0 0 0 127 0" result="hardAlpha"/>
<feOffset dy="1"/>
<feGaussianBlur stdDeviation="2"/>
<feComposite in2="hardAlpha" operator="out"/>
<feColorMatrix type="matrix" values="0 0 0 0 0 0 0 0 0 0 0 0 0 0 0 0 0 0 0.1 0"/>
<feBlend mode="normal" in2="BackgroundImageFix" result="effect1_dropShadow_3_88"/>
<feBlend mode="normal" in="SourceGraphic" in2="effect1_dropShadow_3_88" result="shape"/>
</filter>
</defs>
</svg>
